<svg enable-background="new 0 0 47.94 47.94" viewBox="0 0 47.94 47.94" xmlns="http://www.w3.org/2000/svg"><path d="m26.285 2.486 5.407 10.956c.376.762 1.103 1.29 1.944 1.412l12.091 1.757c2.118.308 2.963 2.91 1.431 4.403l-8.749 8.528c-.608.593-.886 1.448-.742 2.285l2.065 12.042c.362 2.109-1.852 3.717-3.746 2.722l-10.814-5.685c-.752-.395-1.651-.395-2.403 0l-10.814 5.685c-1.894.996-4.108-.613-3.746-2.722l2.065-12.042c.144-.837-.134-1.692-.742-2.285l-8.749-8.528c-1.532-1.494-.687-4.096 1.431-4.403l12.091-1.757c.841-.122 1.568-.65 1.944-1.412l5.407-10.956c.946-1.919 3.682-1.919 4.629 0z" fill="#ed8a19"/></svg>